<?xml version="1.0" encoding="UTF-8" standalone="no"?>
<!-- Created with Inkscape (http://www.inkscape.org/) -->

<svg
   width="103.57956mm"
   height="80.263641mm"
   viewBox="0 0 103.57956 80.263641"
   version="1.1"
   id="svg1"
   xmlns:inkscape="http://www.inkscape.org/namespaces/inkscape"
   xmlns:sodipodi="http://sodipodi.sourceforge.net/DTD/sodipodi-0.dtd"
   xmlns="http://www.w3.org/2000/svg"
   xmlns:svg="http://www.w3.org/2000/svg">
  <sodipodi:namedview
     id="namedview1"
     pagecolor="#ffffff"
     bordercolor="#000000"
     borderopacity="0.25"
     inkscape:showpageshadow="2"
     inkscape:pageopacity="0.0"
     inkscape:pagecheckerboard="0"
     inkscape:deskcolor="#d1d1d1"
     inkscape:document-units="mm" />
  <defs
     id="defs1" />
  <g
     inkscape:label="Layer 1"
     inkscape:groupmode="layer"
     id="layer1"
     transform="translate(-31.668408,-31.918252)">
    <path
       style="fill:#112333;stroke:none"
       d="m 81.78913,32.043385 c -5.907157,0.929812 -8.236456,5.745862 -10.922242,10.467166 -5.589695,9.82604 -11.296703,19.59129 -16.971305,29.368761 -2.970684,5.11855 -5.608072,10.71561 -1.501757,16.13958 3.683157,4.86503 9.146701,4.23334 14.578625,4.23334 h 27.252078 c 4.32681,0 9.234881,0.64497 13.493751,-0.12291 6.31166,-1.13797 9.9711,-7.59025 8.49322,-13.63543 -1.24412,-5.08904 -5.31516,-10.03343 -7.88974,-14.55209 C 103.14648,54.858621 98.399289,44.955401 92.361019,36.425134 90.045879,33.154541 85.74032,31.421451 81.78913,32.043385 m 7.143739,27.135916 c 0.43091,-1.3641 1.25693,-2.4911 1.31128,-3.96875 0.13735,-3.7347 -3.644009,-7.20645 -7.396689,-6.14135 -1.2485,0.35434 -2.21469,1.40888 -3.439593,1.70755 -2.20122,0.53671 -3.784793,-0.23952 -5.810215,1.39885 -1.202353,0.97259 -1.428619,2.62156 -2.526812,3.54452 -1.096243,0.92133 -2.430855,1.22158 -3.360579,2.42473 -3.049443,3.9463 -0.441414,9.536901 4.553857,9.765711 0.04934,5.95984 1.642309,13.81271 -1.433161,19.31336 -1.078726,1.92936 -3.006406,1.58872 -4.91684,1.58872 -3.613349,0 -7.836667,0.68361 -10.459617,-2.39187 -3.958847,-4.64184 -0.738323,-9.40809 1.833302,-13.74771 5.81739,-9.81685 11.307248,-19.829281 17.146064,-29.633341 2.510341,-4.215169 5.197081,-9.130026 11.059414,-7.464276 4.431869,1.25929 6.338469,6.451776 8.426859,10.110106 4.49445,7.87312 9.119871,15.671 13.607871,23.547931 1.88085,3.30109 5.0248,7.04043 5.66037,10.84791 1.2119,7.26006 -5.56248,8.73125 -11.02635,8.73125 -1.41599,0 -3.416611,0.35807 -4.751881,-0.15965 -3.19418,-1.23845 -3.11368,-8.17513 -3.18174,-10.95285 -0.0234,-0.95641 -0.32819,-2.74437 0.42035,-3.48103 1.43871,-1.41585 6.032471,-0.8109 6.279771,-3.40119 0.24007,-2.51453 -4.703091,-2.40081 -6.091741,-3.45919 -0.92633,-0.70602 -1.001,-2.40766 -1.50564,-3.41693 -0.98162,-1.963251 -2.50003,-3.665231 -4.39828,-4.762501 m 2.11666,17.727091 c 0,4.38553 0.92923,7.75251 2.11667,11.90625 -2.11634,0.62556 -4.67985,0.26459 -6.879169,0.26459 -3.90449,0 -8.957093,0.84176 -12.699995,-0.26459 1.50793,-3.90896 2.360777,-7.96772 2.381048,-12.17083 0.01572,-3.2584 -0.787137,-6.87869 0.07697,-10.05418 2.449304,-9.000901 16.454496,-6.045421 14.918326,3.17501 -0.74306,4.46 -3.93056,5.36197 -7.582679,6.56253 -0.91287,0.30008 -1.80917,1.11351 -1.308,2.15341 1.53433,3.18369 7.073789,-1.08256 8.976829,-1.57219 M 82.05759,65.450702 c -4.195393,1.45683 -1.69165,8.12067 2.64174,6.45678 4.199259,-1.61238 1.56768,-7.91848 -2.64174,-6.45678 m 2.10216,1.71266 c 1.26086,0.15806 1.02321,2.03462 -0.23682,1.89495 -1.27898,-0.14176 -1.01487,-2.05188 0.23682,-1.89495 M 55.598229,99.057901 c -1.717951,0.18923 -1.861482,2.503649 0,2.365529 1.762873,-0.13081 1.941233,-2.579349 0,-2.365529 M 45.27662,112.09597 c 0.04192,-0.97627 0.216742,-1.934 0.264583,-2.91041 0.05705,-1.1643 0.08682,-2.72792 0.908484,-3.64353 0.713076,-0.79461 1.898269,-0.92363 2.324293,0.21967 0.595755,1.59879 -0.636597,3.62005 -0.06227,5.24716 0.279256,0.79115 1.441962,1.40241 2.189347,0.81417 0.796003,-0.62652 0.454777,-2.52885 0.573261,-3.43122 0.556737,-4.24014 -0.797587,-7.35517 -5.40395,-5.02709 0,-0.78336 -0.321018,-6.379208 -2.373901,-3.808889 -0.660229,0.826639 -0.511772,3.297959 -0.536516,4.338059 -0.06577,2.76445 -1.970003,8.10322 2.116667,8.20208 m -4.497917,-3.70416 c -1.263263,0.16523 -2.411257,1.13488 -3.703963,1.0077 -6.046101,-0.59484 1.419043,-11.671649 1.587296,-4.71187 2.550462,-0.11852 4.144791,-2.80837 1.573004,-4.49649 -5.793487,-3.802838 -10.851949,5.50085 -7.486728,10.04131 2.399155,3.23701 7.502659,2.05603 8.030391,-1.84065 m 27.516668,-8.731249 c -0.419204,3.316959 -1.287195,7.526909 -0.754552,10.843829 0.146539,0.91254 1.484401,2.21296 2.334701,1.16634 0.554427,-0.68246 0.468782,-2.42061 0.536518,-3.27892 h 0.264584 c 0.572171,1.20948 1.395292,2.81011 2.649713,3.43101 0.809483,0.40067 2.216148,0.0828 2.102989,-1.05487 -0.140952,-1.41701 -2.397444,-3.0008 -3.165202,-4.22823 0.87017,-0.36238 2.149077,-0.76662 2.6344,-1.64384 0.433509,-0.78357 -0.01218,-2.17431 -1.058535,-2.09155 -1.125933,0.089 -2.300462,1.49757 -3.163365,2.14789 0.02178,-2.63086 1.182789,-5.279079 -2.381251,-5.291659 m 61.118761,5.027079 c 2.24479,1.30404 -0.58317,4.94424 1.23105,6.69318 1.61948,1.56123 4.32856,0.2788 3.79602,-1.93068 -2.44401,0.21162 -1.32718,-3.21204 -1.32291,-4.7625 2.49581,-0.0605 3.06273,-2.34809 0.26458,-2.38125 -0.11097,-4.577749 -3.94159,0.0888 -3.96874,2.38125 m -73.289595,7.40833 c 0.104112,-1.31926 0.184122,-2.65218 0.309498,-3.96875 0.08486,-0.89109 0.215535,-1.74672 0.219467,-2.64583 0.0038,-0.86343 -0.772579,-4.72056 -2.373697,-2.74975 -0.623217,0.76712 -0.522622,2.85481 -0.535497,3.80808 -0.03384,2.50603 -1.105726,5.47193 2.380229,5.55625 m 9.260418,-2.91041 c -1.506223,0.25503 -3.834574,1.23334 -4.194137,-1.05956 -0.06625,-0.4225 -0.05705,-0.89746 -0.01041,-1.32169 0.356334,-3.24173 1.797755,-0.87641 2.964314,-0.44913 1.0673,0.39091 1.976414,-0.69643 1.976414,-1.66774 0,-2.12257 -2.85132,-2.56574 -4.440346,-2.13525 -3.197577,0.86627 -4.736671,5.5832 -2.53498,8.19208 1.91068,2.26405 5.899592,1.48821 6.239147,-1.55871 m 14.022922,-1.05834 c 2.274993,-0.0977 8.588022,-2.68599 4.218833,-5.25471 -4.345893,-2.55503 -9.208569,3.80694 -6.414103,7.6082 1.16397,1.58332 3.614793,1.87796 5.366183,1.25963 0.84492,-0.2983 2.09826,-1.52701 0.97421,-2.3298 -1.52274,-1.08754 -2.93298,1.23161 -4.145123,-1.28332 m 9.260402,3.96875 c 0.19634,-1.0576 0.23206,-2.11266 0.37708,-3.175 0.11988,-0.87823 1.35424,-6.12244 3.05516,-3.61902 1.64679,2.42375 -2.0834,6.67951 2.65318,6.79402 0.10511,-2.4478 1.24866,-5.84375 0.29276,-8.19044 -0.91659,-2.25017 -4.24141,-1.76169 -5.31984,-0.0116 -0.57347,-0.66566 -1.72711,-2.07182 -2.75077,-1.31148 -0.714659,0.53081 -0.408089,2.12196 -0.499769,2.89898 -0.30781,2.60881 -1.4616,6.5262 2.192199,6.61458 m 14.816671,0 c 0.0834,-1.0572 0.20204,-2.1192 0.3093,-3.175 0.0983,-0.96765 1.91076,-6.41525 3.23522,-3.40018 0.75221,1.71237 -0.66285,3.75919 0.0547,5.48807 0.29461,0.70982 1.34029,1.34582 2.06196,0.8111 0.85403,-0.6328 0.64251,-3.00545 0.71229,-3.95732 0.323,-4.40631 -1.40364,-6.86981 -5.84431,-4.23333 -0.37754,-0.71943 -1.56808,-1.89197 -2.37391,-0.89767 -0.50606,0.62445 -0.4171,2.23159 -0.49159,3.01433 -0.24662,2.59152 -1.219751,6.26399 2.33633,6.35 m 11.11251,-3.96875 c 2.13628,-0.092 8.40479,-2.76829 4.20455,-5.24817 -4.46402,-2.63563 -9.52587,4.18685 -6.24753,7.86522 1.15486,1.29576 3.08171,1.55458 4.6878,1.10611 0.90052,-0.25145 2.3657,-1.13619 1.57708,-2.28061 -1.01767,-1.4768 -3.39131,1.3546 -4.2219,-1.44255 m 10.31875,1.5875 c -0.88897,-0.002 -5.23793,-0.95674 -3.9563,1.24943 1.47386,2.53705 7.87226,0.83243 6.58927,-2.56172 -0.50656,-1.34014 -3.63583,-1.78007 -3.63659,-2.93819 -0.001,-1.523 4.70222,2.11853 3.7942,-1.55892 -0.73783,-2.98818 -5.75025,-1.24578 -6.29263,1.0469 -0.66286,2.80192 2.8634,2.72146 3.50205,4.7625 m -45.508333,-2.91041 c 1.016903,-3.88185 4.233453,-0.10235 0,0 m 35.189583,0 c 0.43434,-3.86462 4.39906,-0.10641 0,0 z"
       id="path1"
       inkscape:export-filename="logo.svg"
       inkscape:export-xdpi="96"
       inkscape:export-ydpi="96" />
  </g>
</svg>
